<svg width="213" height="63" viewBox="0 0 213 63" fill="none" xmlns="http://www.w3.org/2000/svg">
<path d="M137.074 27.1607C136.002 28.6339 134.959 30.1339 133.857 31.5803C131.445 34.7143 130.223 34.7411 127.811 31.6875C126.589 30.1339 125.368 28.5803 124.177 27.0268C123.79 27.0803 123.373 27.1339 122.985 27.1875C122.836 31.125 122.688 35.0625 122.598 38.9732C122.598 39.8303 123.105 40.7946 122.777 41.4911C122.39 42.3214 121.466 43.2857 120.573 43.5C119.977 43.6339 118.786 42.6696 118.339 41.9732C117.922 41.3036 117.981 40.3125 118.011 39.4821C118.19 34.5536 118.398 29.6518 118.607 24.7232C118.666 23.6518 118.458 22.4732 118.875 21.5357C119.322 20.5446 120.215 19.3928 121.198 19.0446C121.854 18.8036 123.343 19.6607 123.998 20.3571C126.441 22.9286 128.734 25.6607 131.623 28.9553C134.095 25.6071 136.121 22.6607 138.385 19.8482C139.248 18.7768 140.797 17.25 141.78 17.3839C143.984 17.6786 143.538 19.5268 143.448 21.2411C143.061 27.0803 142.972 32.9464 142.882 38.8125C142.853 40.5268 143.418 42.6161 140.768 42.8839C137.729 43.1518 137.938 40.8214 137.908 39.0536C137.819 35.1428 137.908 31.2321 137.908 27.3214C137.67 27.2678 137.402 27.2143 137.163 27.1339L137.074 27.1607Z" fill="black"/>
<path d="M80.9874 32.9464C80.9874 36.1607 81.1364 38.625 80.9279 41.0357C80.8385 41.9196 79.9449 42.7768 79.4386 43.6339C78.6641 42.8571 77.6514 42.1875 77.1749 41.2768C76.8174 40.5804 77.0855 39.5893 77.0855 38.7321C77.0259 34.6607 76.9664 30.6161 76.8174 26.5446C76.8174 26.0893 76.3706 25.5268 75.9536 25.2589C72.9453 23.3839 74.4346 21.6429 76.4004 20.4107C80.4513 17.8929 85.0681 16.8482 89.9827 17.3571C93.3485 17.7054 94.5995 20.3036 92.5443 22.7679C91.3827 24.1607 89.6253 25.2321 87.9871 26.25C86.6467 27.0804 85.0979 27.6429 84.8298 27.6964C87.0637 30.3214 89.3572 32.8929 91.5018 35.5982C92.9315 37.4196 94.391 39.2679 95.3442 41.3304C95.7314 42.1875 94.808 43.5536 94.4804 44.6786C93.3485 44.1161 91.9188 43.7679 91.1742 42.9375C88.7317 40.2054 86.5872 37.2589 84.2043 34.4732C83.6979 33.8839 82.6554 33.6696 81.047 32.9196L80.9874 32.9464ZM89.5062 21.5089C84.1745 19.9554 81.3449 21.5089 82.2384 25.3661C84.5915 24.1071 86.7659 22.9554 89.5062 21.5089Z" fill="black"/>
<path d="M58.7673 33.1071C54.6569 35.1696 50.2188 36.1607 49.5039 41.0625C49.3848 41.9464 47.5381 42.6429 46.4956 43.4196C46.1381 42.3214 45.1552 41.0625 45.4829 40.1518C47.8657 33.4286 50.3975 26.7589 53.108 20.1429C53.525 19.0982 55.1334 17.5982 55.9079 17.7321C57.0993 17.9464 58.4099 19.1786 59.0056 20.2768C60.2864 22.5268 61.1502 24.9911 62.3416 27.75C65.6478 26.6518 68.8647 25.5804 72.0517 24.5089C72.2602 24.7768 72.4687 25.0714 72.707 25.3393C72.1113 25.9554 71.6645 26.7321 70.9199 27.1339C69.3115 28.0179 67.5839 28.7946 65.8563 29.5179C63.8904 30.3482 63.3543 31.6339 63.9798 33.4554C64.8138 35.7857 65.7967 38.1161 66.2435 40.5268C66.452 41.5446 65.4691 42.75 65.0223 43.8482C63.9202 43.0982 62.282 42.5625 61.8054 41.5714C60.5544 38.9732 59.8098 36.1875 58.7375 33.1071H58.7673ZM52.3038 32.3571C58.2609 30.3482 58.8567 28.3929 54.8952 24.4821C54.0612 27.0804 53.2569 29.4643 52.3038 32.3571Z" fill="black"/>
<path d="M164.298 33.1607C159.89 35.25 155.422 36.3482 154.945 41.3036C154.856 42.0536 153.248 42.6964 152.354 43.3929C151.877 42.3214 150.745 41.0625 151.043 40.1786C152.652 35.1429 154.558 30.1875 156.435 25.2322C157.209 23.2232 157.983 21.1607 159.056 19.2589C160.485 16.7411 162.6 16.7411 164.03 19.2322C165.102 21.1339 165.847 23.1964 166.592 25.2054C167.396 27.3214 168.766 27.7768 170.97 26.8661C173.144 25.9554 175.408 25.2322 177.642 24.4286C177.88 24.8304 178.119 25.2589 178.387 25.6607C176.361 26.8661 174.455 28.3125 172.251 29.1697C169.242 30.3482 168.766 31.9018 169.957 34.4732C170.821 36.3214 171.536 38.3304 171.804 40.3125C171.953 41.4375 171.059 42.6964 170.642 43.9018C169.57 43.1786 167.962 42.6429 167.485 41.6786C166.234 39.0804 165.46 36.2679 164.328 33.1607H164.298ZM157.954 31.7143C158.281 31.9286 158.579 32.1429 158.907 32.3572C160.247 31.4732 162.392 30.7768 162.69 29.6786C163.047 28.2589 161.915 26.5447 161.439 24.9375C161.051 24.9643 160.694 25.0179 160.307 25.0447C159.532 27.2679 158.728 29.4911 157.954 31.7143Z" fill="black"/>
<path d="M22.7265 23.1161C20.5819 24.6429 19.3607 25.6339 18.0203 26.4107C17.3352 26.8125 16.3821 26.8661 15.5481 27.0536C15.6077 26.2768 15.3098 25.2321 15.7566 24.75C19.6287 20.7321 24.186 17.7054 30.441 17.9196C34.7897 18.0536 37.798 20.4643 37.7683 24.375C37.7683 27.4018 37.5598 30.9107 35.8918 33.3214C32.8238 37.6875 28.624 41.4375 24.7817 45.3214C24.3349 45.7768 23.0839 45.7232 22.2499 45.6161C22.0116 45.5893 21.7435 44.4911 21.8329 43.9286C22.0414 42.5625 22.6669 41.2232 22.6967 39.8839C22.8158 34.6339 22.7265 29.4107 22.7265 23.0893V23.1161ZM26.4795 38.1161C26.8071 38.1964 27.1347 38.3036 27.4326 38.3839C31.126 35.1696 33.8365 31.4196 34.045 26.5982C34.1046 25.2857 33.777 23.625 32.8834 22.7143C31.9303 21.75 30.1133 21.1875 28.6538 21.1071C27.9687 21.0804 26.5986 22.6071 26.5688 23.4643C26.3603 28.3393 26.4795 33.2411 26.4795 38.1161Z" fill="black"/>
<path d="M182.229 48.1607C182.944 45.75 183.361 43.2589 184.403 40.9554C186.637 35.9732 186.548 31.5 182.199 27.4286C181.157 26.4643 180.382 25.125 179.965 23.8125C179.697 22.9821 180.263 21.9107 180.442 20.9464C181.574 21.2143 183.152 21.1607 183.778 21.8304C185.297 23.3839 186.369 25.2857 188.097 27.6964C189.199 24.6696 189.884 22.3393 190.897 20.1429C191.284 19.3393 192.446 18.8304 193.25 18.1875C193.548 19.125 194.233 20.0893 194.084 20.9464C192.565 29.9464 188.574 38.3036 185.386 46.8482C185.118 47.5982 184.195 48.1339 183.54 48.7768C183.093 48.5625 182.646 48.3482 182.199 48.1607H182.229Z" fill="black"/>
<path d="M107.616 24.9911C107.616 30.5357 107.705 36.0804 107.527 41.5982C107.527 42.4821 106.305 43.3661 105.65 44.2232C104.697 43.6071 102.88 42.9643 102.88 42.375C102.969 35.4911 103.327 28.5804 103.744 21.6964C103.774 21.1875 105.203 20.25 105.74 20.3571C106.544 20.5446 107.467 21.375 107.765 22.125C108.122 22.9554 107.854 24.0268 107.854 24.9911C107.765 24.9911 107.705 24.9911 107.616 24.9911Z" fill="black"/>
</svg>
