<svg width="50" height="44" viewBox="0 0 50 44" fill="none" xmlns="http://www.w3.org/2000/svg">
<path d="M4.69262 44C3.42671 44 2.36979 43.576 1.52188 42.7281C0.673958 41.8802 0.25 40.8233 0.25 39.5574V4.44262C0.25 3.17671 0.673958 2.11979 1.52188 1.27188C2.36979 0.423958 3.42671 0 4.69262 0H45.3074C46.5733 0 47.6302 0.423958 48.4781 1.27188C49.326 2.11979 49.75 3.17671 49.75 4.44262V39.5574C49.75 40.8233 49.326 41.8802 48.4781 42.7281C47.6302 43.576 46.5733 44 45.3074 44H4.69262ZM4.69262 41.25H45.3074C45.7309 41.25 46.1189 41.0738 46.4713 40.7213C46.8238 40.3689 47 39.9809 47 39.5574V4.44262C47 4.01912 46.8238 3.63115 46.4713 3.27869C46.1189 2.92623 45.7309 2.75 45.3074 2.75H4.69262C4.26912 2.75 3.88115 2.92623 3.52869 3.27869C3.17623 3.63115 3 4.01912 3 4.44262V39.5574C3 39.9809 3.17623 40.3689 3.52869 40.7213C3.88115 41.0738 4.26912 41.25 4.69262 41.25ZM7.125 34.375H18.125V31.625H7.125V34.375ZM32.0125 28.2934L43.6684 16.6375L41.7062 14.6754L32.0125 24.4379L28.0938 20.5191L26.2004 22.4813L32.0125 28.2934ZM7.125 23.375H18.125V20.625H7.125V23.375ZM7.125 12.375H18.125V9.625H7.125V12.375Z" fill="#1F6B9A"/>
</svg>
