<svg width="32" height="32" viewBox="0 0 32 32" fill="none" xmlns="http://www.w3.org/2000/svg">
<rect width="32" height="32" fill="white"/>
<path d="M2.58442 18.8V14H2.96378V18.3611H4.97336V18.8H2.58442Z" fill="black"/>
<path d="M8.91494 16.1463H10.8117V16.5783H8.91494V16.1463ZM8.95595 18.3611H11.1142V18.8H8.57659V14H11.0373V14.4389H8.95595V18.3611Z" fill="black"/>
<path d="M14.9793 18.8V14H15.3586V18.3611H17.3682V18.8H14.9793Z" fill="black"/>
<path d="M21.3098 16.1463H23.2066V16.5783H21.3098V16.1463ZM21.3508 18.3611H23.5091V18.8H20.9715V14H23.4322V14.4389H21.3508V18.3611Z" fill="black"/>
<path d="M28.1852 18.8V17.0171L28.2724 17.3326L26.7498 14H27.1548L28.4928 16.928H28.2775L29.6155 14H29.9949L28.4723 17.3326L28.5595 17.0171V18.8H28.1852Z" fill="black"/>
<path d="M2 19.6571H30V20H2V19.6571Z" fill="black"/>
</svg>
