<svg width="110" height="18" viewBox="0 0 110 18" fill="currentColor" xmlns="http://www.w3.org/2000/svg">
<path d="M2.28 14V0H3.76V12.72H11.6V14H2.28Z" fill="currentColor"/>
<path d="M26.9773 6.26H34.3773V7.52H26.9773V6.26ZM27.1373 12.72H35.5573V14H25.6573V0H35.2573V1.28H27.1373V12.72Z" fill="currentColor"/>
<path d="M50.6362 14V0H52.1162V12.72H59.9563V14H50.6362Z" fill="wcurrentColorhite"/>
<path d="M75.3336 6.26H82.7336V7.52H75.3336V6.26ZM75.4936 12.72H83.9136V14H74.0136V0H83.6136V1.28H75.4936V12.72Z" fill="whicurrentColorte"/>
<path d="M102.157 14V8.8L102.497 9.72L96.5567 0H98.1367L103.357 8.54H102.517L107.737 0H109.217L103.277 9.72L103.617 8.8V14H102.157Z" fill="currentColor"/>
<path d="M0 16.5H109.237V17.5H0V16.5Z" fill="currentColor"/>
</svg>
