<svg width="20" height="15" viewBox="0 0 20 15" fill="currentColor" xmlns="http://www.w3.org/2000/svg">
<path d="M1.875 15C1.37153 15 0.93316 14.8134 0.559896 14.4401C0.186632 14.0668 0 13.6285 0 13.125V1.875C0 1.37153 0.186632 0.93316 0.559896 0.559896C0.93316 0.186632 1.37153 0 1.875 0H18.125C18.6406 0 19.082 0.186632 19.4492 0.559896C19.8164 0.93316 20 1.37153 20 1.875V13.125C20 13.6285 19.8164 14.0668 19.4492 14.4401C19.082 14.8134 18.6406 15 18.125 15H1.875ZM18.125 4.08854L10.4948 8.46354C10.4163 8.51562 10.3339 8.55469 10.2474 8.58073C10.1609 8.60677 10.0785 8.61979 10 8.61979C9.91319 8.61979 9.83507 8.60677 9.76562 8.58073C9.69618 8.55469 9.61875 8.51823 9.53333 8.47135L1.875 4.08854V13.125H18.125V4.08854ZM10 6.53646L18.099 1.875H1.92708L10 6.53646ZM1.875 3.7526V3.98672V2.61719V2.63021V1.875V2.62891V2.61719V3.98906V3.75469V13.125V3.7526Z" fill="currentColor"/>
</svg>
