<svg width="48" height="48" viewBox="0 0 48 48" fill="none" xmlns="http://www.w3.org/2000/svg">
<path d="M16.8076 47.6926C12.2316 47.6926 8.33762 46.0866 5.12562 42.8746C1.91362 39.6626 0.307617 35.7686 0.307617 31.1926C0.307617 26.6162 1.91362 22.7219 5.12562 19.5099C8.33762 16.2984 12.2316 14.6926 16.8076 14.6926C21.3841 14.6926 25.2783 16.2984 28.4903 19.5099C31.7018 22.7219 33.3076 26.6162 33.3076 31.1926C33.3076 35.7686 31.7018 39.6626 28.4903 42.8746C25.2783 46.0866 21.3841 47.6926 16.8076 47.6926ZM16.8076 44.9426C20.6118 44.9426 23.8545 43.602 26.5357 40.9208C29.217 38.2395 30.5576 34.9968 30.5576 31.1926C30.5576 27.3885 29.217 24.1458 26.5357 21.4645C23.8545 18.7832 20.6118 17.4426 16.8076 17.4426C13.0035 17.4426 9.76074 18.7832 7.07949 21.4645C4.39824 24.1458 3.05762 27.3885 3.05762 31.1926C3.05762 34.9968 4.39824 38.2395 7.07949 40.9208C9.76074 43.602 13.0035 44.9426 16.8076 44.9426ZM37.0841 32.1654C37.1051 31.9963 37.1157 31.8354 37.1157 31.6828V31.1926C37.1157 25.59 35.1316 20.8047 31.1633 16.8369C27.1955 12.8687 22.4103 10.8846 16.8076 10.8846H16.3174C16.1648 10.8846 16.0039 10.8951 15.8348 10.9162C16.7446 8.22256 18.5612 5.78102 21.2846 3.59156C24.008 1.4021 27.3108 0.307373 31.1929 0.307373C35.7689 0.307373 39.6629 1.91337 42.8749 5.12537C46.0869 8.33737 47.6929 12.2314 47.6929 16.8074C47.6929 20.6895 46.5981 23.9922 44.4087 26.7156C42.2192 29.439 39.7777 31.2556 37.0841 32.1654Z" fill="#1F6B9A"/>
</svg>
