<svg width="46" height="44" viewBox="0 0 46 44" fill="none" xmlns="http://www.w3.org/2000/svg">
<path d="M3.74998 44C2.5794 44 1.7473 43.4773 1.25367 42.4318C0.760045 41.3864 0.876462 40.4108 1.60292 39.5051L17.5 20.2022V2.75H13.6926C13.303 2.75 12.9765 2.618 12.7129 2.354C12.4494 2.09 12.3176 1.76298 12.3176 1.37294C12.3176 0.982894 12.4494 0.656561 12.7129 0.393936C12.9765 0.131311 13.303 0 13.6926 0H32.3074C32.6969 0 33.0235 0.132001 33.287 0.396001C33.5506 0.660001 33.6824 0.987023 33.6824 1.37706C33.6824 1.76711 33.5506 2.09344 33.287 2.35606C33.0235 2.61869 32.6969 2.75 32.3074 2.75H28.5V20.2022L44.397 39.5051C45.1235 40.4108 45.2399 41.3864 44.7463 42.4318C44.2527 43.4773 43.4206 44 42.25 44H3.74998ZM3.74998 41.25H42.25L25.75 21.175V2.75H20.25V21.175L3.74998 41.25Z" fill="#1F6B9A"/>
</svg>
