<svg width="40" height="49" viewBox="0 0 40 49" fill="none" xmlns="http://www.w3.org/2000/svg">
<path d="M20.5974 42.4036C21.0067 42.3577 21.3266 42.2168 21.5572 41.9808C21.7882 41.7443 21.9037 41.4594 21.9037 41.1262C21.9037 40.7371 21.7719 40.4357 21.5084 40.2221C21.2444 40.009 20.9073 39.9254 20.4971 39.9712C18.6179 40.1087 16.5185 39.5225 14.1989 38.2126C11.8788 36.9027 10.4438 34.7123 9.89375 31.6414C9.80208 31.2079 9.64969 30.8836 9.43656 30.6686C9.22298 30.4537 8.95233 30.3462 8.62463 30.3462C8.26483 30.3462 7.95798 30.4809 7.70406 30.7504C7.4506 31.0204 7.37498 31.4233 7.47719 31.9591C8.18577 35.7774 9.94852 38.5098 12.7654 40.1561C15.5824 41.8025 18.193 42.5516 20.5974 42.4036ZM19.9904 48.7499C14.4931 48.7499 9.91208 46.8583 6.24725 43.0753C2.58242 39.2926 0.75 34.5842 0.75 28.9499C0.75 25.0013 2.34271 20.6339 5.52813 15.8475C8.71354 11.0616 13.5375 5.81115 20 0.0961914C26.4625 5.81115 31.2865 11.0616 34.4719 15.8475C37.6573 20.6339 39.25 25.0013 39.25 28.9499C39.25 34.5842 37.4144 39.2926 33.7431 43.0753C30.0714 46.8583 25.4872 48.7499 19.9904 48.7499ZM20 45.9999C24.7667 45.9999 28.7083 44.3843 31.825 41.153C34.9417 37.9218 36.5 33.854 36.5 28.9499C36.5 25.604 35.1135 21.8228 32.3406 17.6061C29.5677 13.3895 25.4542 8.78321 20 3.78738C14.5458 8.78321 10.4323 13.3895 7.65938 17.6061C4.88646 21.8228 3.5 25.604 3.5 28.9499C3.5 33.854 5.05833 37.9218 8.175 41.153C11.2917 44.3843 15.2333 45.9999 20 45.9999Z" fill="#1F6B9A"/>
</svg>
