<svg width="113" height="61" fill="none" xmlns="http://www.w3.org/2000/svg"><path stroke="#000" d="M0 48.5h113"/><path d="M19.04 32.4h1.08V39H1.92v-1.04l2.2-.24c.427-.053.68-.16.76-.32.08-.16.12-.707.12-1.64V15.04c0-.933-.04-1.48-.12-1.64-.08-.16-.333-.267-.76-.32l-2.2-.2V11.8h9.64v1.08l-2.2.2c-.427.053-.68.16-.76.32-.08.16-.12.707-.12 1.64v22.68h7.24c.64 0 1.093-.013 1.36-.04.267-.053.44-.147.52-.28.107-.16.2-.4.28-.72l1.16-4.28Zm21.986.08h1.04V39h-19.16v-1.04l2.2-.24c.427-.053.68-.16.76-.32.08-.16.12-.707.12-1.64V15.04c0-.933-.04-1.48-.12-1.64-.08-.16-.333-.267-.76-.32l-2.2-.2V11.8h18.64v6.52h-1l-1.16-4.2c-.08-.32-.173-.547-.28-.68-.08-.16-.253-.253-.52-.28-.267-.053-.72-.08-1.36-.08h-7.76v11.56h5.36a15.7 15.7 0 0 0 1.36-.04c.267-.053.44-.147.52-.28.107-.16.2-.4.28-.72l.76-3h1.04v9.36h-1.04l-.76-3c-.08-.32-.173-.547-.28-.68-.08-.16-.253-.253-.52-.28-.267-.053-.72-.08-1.36-.08h-5.36v11.8h8.24a15.7 15.7 0 0 0 1.36-.04c.267-.053.44-.147.52-.28.107-.16.2-.4.28-.72l1.16-4.2Zm22.603-.08h1.08V39h-18.2v-1.04l2.2-.24c.427-.053.68-.16.76-.32.08-.16.12-.707.12-1.64V15.04c0-.933-.04-1.48-.12-1.64-.08-.16-.333-.267-.76-.32l-2.2-.2V11.8h9.64v1.08l-2.2.2c-.427.053-.68.16-.76.32-.08.16-.12.707-.12 1.64v22.68h7.24c.64 0 1.093-.013 1.36-.04.267-.053.44-.147.52-.28.107-.16.2-.4.28-.72l1.16-4.28Zm21.986.08h1.04V39h-19.16v-1.04l2.2-.24c.427-.053.68-.16.76-.32.08-.16.12-.707.12-1.64V15.04c0-.933-.04-1.48-.12-1.64-.08-.16-.333-.267-.76-.32l-2.2-.2V11.8h18.64v6.52h-1l-1.16-4.2c-.08-.32-.173-.547-.28-.68-.08-.16-.253-.253-.52-.28-.267-.053-.72-.08-1.36-.08h-7.76v11.56h5.36c.64 0 1.093-.013 1.36-.04.267-.053.44-.147.52-.28.107-.16.2-.4.28-.72l.76-3h1.04v9.36h-1.04l-.76-3c-.08-.32-.173-.547-.28-.68-.08-.16-.253-.253-.52-.28-.267-.053-.72-.08-1.36-.08h-5.36v11.8h8.24c.64 0 1.093-.013 1.36-.04.267-.053.44-.147.52-.28.107-.16.2-.4.28-.72l1.16-4.2Zm20.163 5.48V39h-9.64v-1.04l2.2-.24c.427-.053.68-.16.76-.32.08-.16.12-.707.12-1.64V27.4l-6.44-12.6c-.267-.533-.48-.907-.64-1.12-.133-.24-.28-.387-.44-.44-.133-.08-.346-.133-.64-.16l-2.04-.2V11.8h9.68v1.08l-2.04.2c-.4.053-.613.16-.64.32 0 .16.187.627.56 1.4l5.44 10.92 5.56-10.92c.4-.773.587-1.24.56-1.4-.027-.16-.24-.267-.64-.32l-2.04-.2V11.8h7.4v1.08l-2.08.2c-.267.027-.48.08-.64.16-.133.053-.28.2-.44.44a15.64 15.64 0 0 0-.6 1.12l-6.4 12.52v8.44c0 .933.04 1.48.12 1.64.08.16.333.267.76.32l2.2.24Z" fill="#000"/></svg>