<svg width="113" height="61" viewBox="0 0 113 61" fill="none" xmlns="http://www.w3.org/2000/svg">
  <line y1="48.5" x2="113" y2="48.5" stroke="black"/>
  <path
    d="M19.04 32.4H20.12V39H1.92V37.96L4.12 37.72C4.54667 37.6667 4.8 37.56 4.88 37.4C4.96 37.24 5 36.6933 5 35.76V15.04C5 14.1067 4.96 13.56 4.88 13.4C4.8 13.24 4.54667 13.1333 4.12 13.08L1.92 12.88V11.8H11.56V12.88L9.36 13.08C8.93333 13.1333 8.68 13.24 8.6 13.4C8.52 13.56 8.48 14.1067 8.48 15.04V37.72H15.72C16.36 37.72 16.8133 37.7067 17.08 37.68C17.3467 37.6267 17.52 37.5333 17.6 37.4C17.7067 37.24 17.8 37 17.88 36.68L19.04 32.4ZM41.0259 32.48H42.0659V39H22.9059V37.96L25.1059 37.72C25.5326 37.6667 25.7859 37.56 25.8659 37.4C25.9459 37.24 25.9859 36.6933 25.9859 35.76V15.04C25.9859 14.1067 25.9459 13.56 25.8659 13.4C25.7859 13.24 25.5326 13.1333 25.1059 13.08L22.9059 12.88V11.8H41.5459V18.32H40.5459L39.3859 14.12C39.3059 13.8 39.2126 13.5733 39.1059 13.44C39.0259 13.28 38.8526 13.1867 38.5859 13.16C38.3193 13.1067 37.8659 13.08 37.2259 13.08H29.4659V24.64H34.8259C35.4659 24.64 35.9193 24.6267 36.1859 24.6C36.4526 24.5467 36.6259 24.4533 36.7059 24.32C36.8126 24.16 36.9059 23.92 36.9859 23.6L37.7459 20.6H38.7859V29.96H37.7459L36.9859 26.96C36.9059 26.64 36.8126 26.4133 36.7059 26.28C36.6259 26.12 36.4526 26.0267 36.1859 26C35.9193 25.9467 35.4659 25.92 34.8259 25.92H29.4659V37.72H37.7059C38.3459 37.72 38.7993 37.7067 39.0659 37.68C39.3326 37.6267 39.5059 37.5333 39.5859 37.4C39.6926 37.24 39.7859 37 39.8659 36.68L41.0259 32.48ZM63.6291 32.4H64.7091V39H46.5091V37.96L48.7091 37.72C49.1357 37.6667 49.3891 37.56 49.4691 37.4C49.5491 37.24 49.5891 36.6933 49.5891 35.76V15.04C49.5891 14.1067 49.5491 13.56 49.4691 13.4C49.3891 13.24 49.1357 13.1333 48.7091 13.08L46.5091 12.88V11.8H56.1491V12.88L53.9491 13.08C53.5224 13.1333 53.2691 13.24 53.1891 13.4C53.1091 13.56 53.0691 14.1067 53.0691 15.04V37.72H60.3091C60.9491 37.72 61.4024 37.7067 61.6691 37.68C61.9357 37.6267 62.1091 37.5333 62.1891 37.4C62.2957 37.24 62.3891 37 62.4691 36.68L63.6291 32.4ZM85.615 32.48H86.655V39H67.495V37.96L69.695 37.72C70.1217 37.6667 70.375 37.56 70.455 37.4C70.535 37.24 70.575 36.6933 70.575 35.76V15.04C70.575 14.1067 70.535 13.56 70.455 13.4C70.375 13.24 70.1217 13.1333 69.695 13.08L67.495 12.88V11.8H86.135V18.32H85.135L83.975 14.12C83.895 13.8 83.8017 13.5733 83.695 13.44C83.615 13.28 83.4417 13.1867 83.175 13.16C82.9083 13.1067 82.455 13.08 81.815 13.08H74.055V24.64H79.415C80.055 24.64 80.5083 24.6267 80.775 24.6C81.0417 24.5467 81.215 24.4533 81.295 24.32C81.4017 24.16 81.495 23.92 81.575 23.6L82.335 20.6H83.375V29.96H82.335L81.575 26.96C81.495 26.64 81.4017 26.4133 81.295 26.28C81.215 26.12 81.0417 26.0267 80.775 26C80.5083 25.9467 80.055 25.92 79.415 25.92H74.055V37.72H82.295C82.935 37.72 83.3883 37.7067 83.655 37.68C83.9217 37.6267 84.095 37.5333 84.175 37.4C84.2817 37.24 84.375 37 84.455 36.68L85.615 32.48ZM105.778 37.96V39H96.1381V37.96L98.3381 37.72C98.7648 37.6667 99.0181 37.56 99.0981 37.4C99.1781 37.24 99.2181 36.6933 99.2181 35.76V27.4L92.7781 14.8C92.5115 14.2667 92.2981 13.8933 92.1381 13.68C92.0048 13.44 91.8581 13.2933 91.6981 13.24C91.5648 13.16 91.3515 13.1067 91.0581 13.08L89.0181 12.88V11.8H98.6981V12.88L96.6581 13.08C96.2581 13.1333 96.0448 13.24 96.0181 13.4C96.0181 13.56 96.2048 14.0267 96.5781 14.8L102.018 25.72L107.578 14.8C107.978 14.0267 108.165 13.56 108.138 13.4C108.111 13.24 107.898 13.1333 107.498 13.08L105.458 12.88V11.8H112.858V12.88L110.778 13.08C110.511 13.1067 110.298 13.16 110.138 13.24C110.005 13.2933 109.858 13.44 109.698 13.68C109.565 13.8933 109.365 14.2667 109.098 14.8L102.698 27.32V35.76C102.698 36.6933 102.738 37.24 102.818 37.4C102.898 37.56 103.151 37.6667 103.578 37.72L105.778 37.96Z"
    fill="black"/>
</svg>
