<svg xmlns="http://www.w3.org/2000/svg" width="48" height="48" baseProfile="basic"><path fill="#2962ff" d="M13.5 6h21a7.5 7.5 0 0 1 7.5 7.5v21a7.5 7.5 0 0 1-7.5 7.5h-21A7.5 7.5 0 0 1 6 34.5v-21A7.5 7.5 0 0 1 13.5 6z"/><path fill="#fff" d="M21.499 26.087h-2.573l3.285-4.346a.22.22 0 0 0-.175-.35h-4.752c-.418 0-.759.342-.759.759s.342.759.759.759h2.135l-3.296 4.35a.216.216 0 0 0 .04.306.19.19 0 0 0 .135.044h5.197a.76.76 0 0 0 0-1.519v-.004h.004zm16.605-4.696a.761.761 0 0 0-.759.759v2.549l-4.104-3.257a.217.217 0 0 0-.354.171v5.237a.76.76 0 0 0 1.518 0v-2.549l4.104 3.261a.22.22 0 0 0 .358-.171V22.15a.761.761 0 0 0-.763-.759M27.245 26.23c-1.738 0-3.034-.915-3.034-1.734s1.3-1.734 3.034-1.734c1.738 0 3.034.915 3.034 1.734s-1.293 1.734-3.034 1.734m0-4.987c-2.513 0-4.553 1.455-4.553 3.253s2.04 3.253 4.553 3.253 4.553-1.455 4.553-3.253-2.04-3.253-4.553-3.253m-14.948 4.991a1.736 1.736 0 1 1 1.734-1.738v.004c0 .955-.775 1.73-1.734 1.734m0-4.991a3.258 3.258 0 0 0-3.257 3.253 3.258 3.258 0 0 0 3.253 3.257A3.258 3.258 0 0 0 15.55 24.5v-.004a3.257 3.257 0 0 0-3.253-3.253"/></svg>